<svg width="70" height="67" viewBox="0 0 70 67" fill="none" xmlns="http://www.w3.org/2000/svg">
<path d="M35.3083 64.2586L67.9783 40.5243L55.4983 2.12H15.1183L2.64258 40.5243L35.3083 64.2586Z" fill="#31414C"/>
<path d="M56.6638 0.512878H13.948L0.748047 41.1372L35.3038 66.2429L69.8595 41.1372L56.6595 0.512878H56.6638ZM7.58805 38.9172L18.178 6.3286H52.4466L63.0366 38.9172L35.3166 59.06L7.59233 38.9172H7.58805Z" fill="url(#paint0_radial_2008_6570)"/>
<g style="mix-blend-mode:multiply" opacity="0.2">
<path d="M18.1738 6.32861L35.3081 59.06L52.4424 6.32861H18.1738Z" fill="#0C363D"/>
</g>
<g style="mix-blend-mode:multiply" opacity="0.6">
<path d="M35.3071 39.4314L17.3242 30.59V32.9342L35.3071 45.9971L53.2899 32.9342V30.59L35.3071 39.4314Z" fill="#2753A0"/>
</g>
<path d="M56.6636 0.512878H13.9479L10.8965 9.91145C12.7951 9.99717 14.7622 10.2372 16.7765 10.6229L18.1736 6.3286H52.4422L63.0322 38.9172L59.0122 41.84C59.9165 43.5972 60.7179 45.4143 61.4036 47.2872L69.8636 41.1415L56.6636 0.517162V0.512878Z" fill="url(#paint1_radial_2008_6570)"/>
<path style="mix-blend-mode:screen" d="M56.6636 0.512878H13.9479L10.8965 9.91145C12.7951 9.99717 14.7622 10.2372 16.7765 10.6229L18.1736 6.3286H52.4422L63.0322 38.9172L59.0122 41.84C59.9165 43.5972 60.7179 45.4143 61.4036 47.2872L69.8636 41.1415L56.6636 0.517162V0.512878Z" fill="url(#paint2_linear_2008_6570)"/>
<path style="mix-blend-mode:screen" d="M54.3238 52.43C54.1223 50.1672 53.7838 48.0114 53.3295 45.9672L35.308 59.06L7.58376 38.9172L15.1866 15.5172C13.0266 15.5686 10.9009 15.8129 8.83947 16.2329L0.748047 41.1372L35.3038 66.2429L54.3195 52.4257L54.3238 52.43Z" fill="url(#paint3_linear_2008_6570)"/>
<path d="M7.58789 38.9172L10.3265 38.3043L19.8665 8.93432H50.7493L60.2893 38.3043L63.0322 38.9172L52.4422 6.32861H18.1736L7.58789 38.9172Z" fill="#455A82"/>
<g style="mix-blend-mode:multiply" opacity="0.2">
<path d="M10.3266 38.3043L15.6666 24.6029C18.8294 16.49 26.6423 12.9715 35.3508 12.9715C44.0937 12.9715 51.9366 16.5372 55.0694 24.7015L60.2937 38.3043L50.7494 8.93433H19.8666L10.3223 38.3043H10.3266Z" fill="#2753A0"/>
</g>
<path d="M7.58789 38.9171L10.3265 38.3043L35.3079 56.4543L60.2893 38.3043L63.0322 38.9171L35.3079 59.06L7.58789 38.9171Z" fill="url(#paint4_linear_2008_6570)"/>
<path d="M17.3242 27.47V30.59L35.3071 43.6571L53.2899 30.59V27.47L35.3071 40.5371L17.3242 27.47Z" fill="#455A82"/>
<g style="mix-blend-mode:multiply" opacity="0.6">
<path d="M10.325 38.3043L20.1221 13.1643C20.5935 11.9514 21.7635 11.15 23.0664 11.15H47.6878C48.995 11.15 50.1693 11.9557 50.6364 13.1771L60.2878 38.3043L50.7436 8.93427H19.8607L10.3164 38.3043H10.325Z" fill="#2753A0"/>
</g>
<path d="M18.1738 6.32861L19.8667 8.93432H50.7495L52.4424 6.32861H18.1738Z" fill="#2E3E54"/>
<path d="M35.3071 40.5371V43.6571L17.3242 30.59V27.47L35.3071 40.5371Z" fill="#2E3E54"/>
<path d="M35.3071 33.9672L19.0428 22.1815L17.3242 27.47L35.3071 40.5372L53.2899 27.47L51.5714 22.1815L35.3071 33.9672Z" fill="url(#paint5_radial_2008_6570)"/>
<path style="mix-blend-mode:screen" d="M35.3087 40.5372L47.3386 31.7986C46.3272 30.3072 45.2258 28.9186 44.0558 27.6329L35.3129 33.9715L19.0487 22.1815L17.3301 27.47L35.3129 40.5372H35.3087Z" fill="url(#paint6_linear_2008_6570)"/>
<path style="mix-blend-mode:screen" d="M46.498 25.8586C47.8266 27.0543 49.1038 28.31 50.3295 29.6215L53.2909 27.47L51.5723 22.1815L46.498 25.8586Z" fill="url(#paint7_linear_2008_6570)"/>
<g style="mix-blend-mode:multiply" opacity="0.35">
<path d="M19.0444 22.1815L18.3887 25.7729C18.2601 26.4843 18.5301 27.2129 19.1001 27.6629L35.3129 40.5372L17.3301 27.47L19.0487 22.1815H19.0444Z" fill="#455A82"/>
</g>
<g style="mix-blend-mode:multiply" opacity="0.35">
<path d="M5.48533 26.5701L2.17676 38.9644C1.91962 40.0315 2.42534 41.4501 3.30819 42.1101L35.3096 66.2472L0.753906 41.1415L5.48962 26.5744L5.48533 26.5701Z" fill="#455A82"/>
</g>
<g style="mix-blend-mode:multiply" opacity="0.6">
<path d="M10.3281 38.3043L34.161 54.3585C34.791 54.7828 35.8281 54.7828 36.4581 54.3585L60.291 38.3043L35.3096 56.4543L10.3281 38.3043Z" fill="#2753A0"/>
</g>
<g style="mix-blend-mode:multiply" opacity="0.35">
<path d="M35.3086 66.2472L66.08 42.4787C68.2315 40.8844 68.6986 40.5372 67.73 37.4815L61.31 14.8015L69.8686 41.1415L35.3129 66.2472H35.3086Z" fill="#455A82"/>
</g>
<g style="mix-blend-mode:multiply" opacity="0.35">
<path d="M6.26367 24.1743L13.4808 3.47859C14.2265 1.37859 14.7708 0.825739 16.9994 0.744311L35.3122 0.512878H13.9565L6.26796 24.1743H6.26367Z" fill="#455A82"/>
</g>
<path d="M20.0391 47.9643L35.3091 59.06L55.9319 44.0771L35.3091 60.0029L20.0391 47.9643Z" fill="#F3FEFF"/>
<path d="M23.2051 25.1943L35.3079 33.9672L49.2022 23.9L35.3079 35.0429L23.2051 25.1943Z" fill="#F3FEFF"/>
<path d="M34.1523 0.512878H56.6652L61.3066 14.8014L55.8081 1.31002L34.1523 0.512878Z" fill="#F3FEFF"/>
<g style="mix-blend-mode:screen">
<path d="M43.1129 0.512878C42.9243 2.36431 43.7343 4.43431 45.2943 6.3286H52.4471L54.2171 11.7715C56.4586 12.32 58.6014 12.3372 60.3586 11.8572L56.6729 0.517162H43.1171L43.1129 0.512878Z" fill="white"/>
</g>
<g style="mix-blend-mode:screen">
<path d="M41.3924 3.74857C39.901 2.66429 38.101 2.59571 37.3724 3.59429C36.8538 4.31 37.0253 5.38143 37.7153 6.32857H43.0681C42.9867 5.45429 42.3824 4.46857 41.3881 3.74857H41.3924Z" fill="white"/>
</g>
<g style="mix-blend-mode:screen">
<path d="M18.1824 46.6143C17.6424 48.0072 18.6196 50.0815 20.5867 51.5086C22.5539 52.9357 24.8296 53.2272 25.9824 52.2843L18.1781 46.6143H18.1824Z" fill="white"/>
</g>
<g style="mix-blend-mode:screen">
<path d="M26.034 56.0814C25.704 56.5871 24.7912 56.5786 23.9983 56.06C23.2054 55.5414 22.824 54.71 23.154 54.2043C23.484 53.6986 24.3969 53.7071 25.1897 54.2257C25.9869 54.7443 26.364 55.5757 26.034 56.0814Z" fill="white"/>
</g>
<g style="mix-blend-mode:multiply" opacity="0.35">
<path d="M45.5645 33.0843L51.4359 28.0358C52.0616 27.5 52.3573 26.6729 52.2159 25.8586L51.5773 22.1772L53.2959 27.4658L45.5687 33.08L45.5645 33.0843Z" fill="#455A82"/>
</g>
<defs>
<radialGradient id="paint0_radial_2008_6570" cx="0" cy="0" r="1" gradientUnits="userSpaceOnUse" gradientTransform="translate(53.7752 -65.7143) scale(54.8186 54.8186)">
<stop offset="0.01" stop-color="#5C6CBA"/>
<stop offset="1" stop-color="#81B3D4"/>
</radialGradient>
<radialGradient id="paint1_radial_2008_6570" cx="0" cy="0" r="1" gradientUnits="userSpaceOnUse" gradientTransform="translate(63.7479 -4.75427) scale(75.84 75.84)">
<stop offset="0.01" stop-color="#5C6CBA"/>
<stop offset="1" stop-color="#81B3D4"/>
</radialGradient>
<linearGradient id="paint2_linear_2008_6570" x1="67.0179" y1="-10.15" x2="32.6465" y2="32.2529" gradientUnits="userSpaceOnUse">
<stop stop-color="#9CD3DE"/>
<stop offset="0.19" stop-color="#98CDDA"/>
<stop offset="0.41" stop-color="#8CBED0"/>
<stop offset="0.66" stop-color="#79A6C0"/>
<stop offset="0.93" stop-color="#5F84AA"/>
<stop offset="1" stop-color="#5779A3"/>
</linearGradient>
<linearGradient id="paint3_linear_2008_6570" x1="12.2766" y1="58.5286" x2="42.3323" y2="20.8614" gradientUnits="userSpaceOnUse">
<stop stop-color="#42495E"/>
<stop offset="1" stop-color="#4A5780"/>
</linearGradient>
<linearGradient id="paint4_linear_2008_6570" x1="35.3079" y1="-65.9286" x2="35.3079" y2="-65.9286" gradientUnits="userSpaceOnUse">
<stop stop-color="#B4E6F7"/>
<stop offset="0.23" stop-color="#CCEEF9"/>
<stop offset="0.51" stop-color="#E3F7FC"/>
<stop offset="0.77" stop-color="#F2FCFE"/>
<stop offset="1" stop-color="#F7FEFF"/>
</linearGradient>
<radialGradient id="paint5_radial_2008_6570" cx="0" cy="0" r="1" gradientUnits="userSpaceOnUse" gradientTransform="translate(48.2156 18.0457) scale(31.7486 31.7486)">
<stop offset="0.01" stop-color="#5C6CBA"/>
<stop offset="1" stop-color="#81B3D4"/>
</radialGradient>
<linearGradient id="paint6_linear_2008_6570" x1="9.78722" y1="56.3215" x2="39.7229" y2="18.8" gradientUnits="userSpaceOnUse">
<stop stop-color="#42495E"/>
<stop offset="1" stop-color="#4A5780"/>
</linearGradient>
<linearGradient id="paint7_linear_2008_6570" x1="70.1552" y1="1.67432" x2="41.7666" y2="36.6929" gradientUnits="userSpaceOnUse">
<stop stop-color="#9CD3DE"/>
<stop offset="0.19" stop-color="#98CDDA"/>
<stop offset="0.41" stop-color="#8CBED0"/>
<stop offset="0.66" stop-color="#79A6C0"/>
<stop offset="0.93" stop-color="#5F84AA"/>
<stop offset="1" stop-color="#5779A3"/>
</linearGradient>
</defs>
</svg>
